<?xml version="1.0" standalone="no"?><!DOCTYPE svg PUBLIC "-//W3C//DTD SVG 1.1//EN" "http://www.w3.org/Graphics/SVG/1.1/DTD/svg11.dtd"><svg t="1686137086222" class="icon" viewBox="0 0 1024 1024" version="1.1" xmlns="http://www.w3.org/2000/svg" p-id="1464" xmlns:xlink="http://www.w3.org/1999/xlink" width="200" height="200"><path d="M1008.2368 283.7184l0 463.9808c0 7.4368-3.9232 14.336-10.3104 18.1632-6.3872 3.8208-14.3232 3.9808-20.8768 0.448l-256.3584-138.0288-13.8688-7.4688-3.9424-2.1312c0 0-2.3616-1.4208-3.4048-2.272-7.6544-6.2848-10.0608-17.312-5.1968-26.368 5.5488-10.2784 18.3744-14.1376 28.6656-8.608l242.9888 130.848 0-393.152L722.944 449.9648c-6.5536 3.5392-14.4896 3.3536-20.8768-0.4608-6.4-3.8208-10.3168-10.7136-10.3168-18.1632L691.7504 220.512 59.2 220.512l0 590.3936 653.7152 0c11.6864 0 21.152 9.4656 21.152 21.1456 0 11.6864-9.4656 21.1584-21.152 21.1584L38.0416 853.2096c-11.6864 0-21.152-9.4656-21.152-21.1584L16.8896 199.3536c0-11.6928 9.4656-21.152 21.152-21.152l674.8608 0c11.6928 0 21.1584 9.4656 21.1584 21.152l0 196.576 242.9824-130.8416c6.5536-3.5264 14.496-3.3536 20.8768 0.4608C1004.3072 269.3696 1008.2368 276.2688 1008.2368 283.7184L1008.2368 283.7184zM1008.2368 283.7184M691.8784 599.3728l42.0224 0 0 233.5808-42.0224 0L691.8784 599.3728 691.8784 599.3728zM691.8784 599.3728" fill="#272636" p-id="1465"></path></svg>